<svg xmlns="http://www.w3.org/2000/svg" width="32" height="32" viewBox="0 0 32 32">
  <rect width="32" height="32" rx="8" fill="#0f172a"/>
  <path d="M5 24 A11 11 0 0 1 27 24" fill="none" stroke="#16a34a" stroke-width="2.5" stroke-linecap="round"/>
  <path d="M8 20 A10 10 0 0 1 24 20" fill="none" stroke="#22c55e" stroke-width="1.5" stroke-linecap="round" opacity="0.5"/>
  <circle cx="16" cy="13" r="2.5" fill="#fbbf24"/>
  <line x1="16" y1="9" x2="16" y2="7" stroke="#fbbf24" stroke-width="1" stroke-linecap="round"/>
  <line x1="20" y1="10" x2="21.5" y2="8.5" stroke="#fbbf24" stroke-width="1" stroke-linecap="round"/>
  <line x1="12" y1="10" x2="10.5" y2="8.5" stroke="#fbbf24" stroke-width="1" stroke-linecap="round"/>
  <rect x="7" y="24" width="18" height="5" rx="1.5" fill="#16a34a"/>
  <rect x="9" y="22" width="14" height="3" rx="1" fill="#15803d"/>
  <rect x="10" y="24" width="2.5" height="3" rx="0.5" fill="#bae6fd" opacity="0.7"/>
  <rect x="14" y="24" width="2.5" height="3" rx="0.5" fill="#bae6fd" opacity="0.7"/>
  <rect x="18" y="24" width="2.5" height="3" rx="0.5" fill="#bae6fd" opacity="0.7"/>
  <circle cx="10" cy="30" r="1.8" fill="#1e293b"/>
  <circle cx="22" cy="30" r="1.8" fill="#1e293b"/>
  <rect x="23" y="25" width="1.5" height="1.5" rx="0.3" fill="#fef08a"/>
  <text x="11" y="6" font-family="Georgia,serif" font-size="5" font-weight="700" font-style="italic" fill="#4ade80">N</text>
  <text x="16" y="6" font-family="Georgia,serif" font-size="5" font-weight="700" font-style="italic" fill="#fbbf24">V</text>
</svg>