<svg xmlns="http://www.w3.org/2000/svg" width="192" height="192" viewBox="0 0 192 192">
  <rect width="192" height="192" rx="48" fill="#0f172a"/>
  <rect x="6" y="6" width="180" height="180" rx="44" fill="none" stroke="#16a34a" stroke-width="4"/>
  <path d="M30 145 A66 66 0 0 1 162 145" fill="none" stroke="#16a34a" stroke-width="15" stroke-linecap="round"/>
  <path d="M48 121 A60 60 0 0 1 144 121" fill="none" stroke="#22c55e" stroke-width="9" stroke-linecap="round" opacity="0.5"/>
  <circle cx="96" cy="78" r="15" fill="#fbbf24"/>
  <line x1="96" y1="54" x2="96" y2="42" stroke="#fbbf24" stroke-width="6" stroke-linecap="round"/>
  <line x1="120" y1="60" x2="129" y2="51" stroke="#fbbf24" stroke-width="6" stroke-linecap="round"/>
  <line x1="72" y1="60" x2="63" y2="51" stroke="#fbbf24" stroke-width="6" stroke-linecap="round"/>
  <rect x="42" y="144" width="108" height="30" rx="9" fill="#16a34a"/>
  <rect x="54" y="132" width="84" height="18" rx="6" fill="#15803d"/>
  <rect x="60" y="144" width="15" height="18" rx="3" fill="#bae6fd" opacity="0.8"/>
  <rect x="84" y="144" width="15" height="18" rx="3" fill="#bae6fd" opacity="0.8"/>
  <rect x="108" y="144" width="15" height="18" rx="3" fill="#bae6fd" opacity="0.8"/>
  <circle cx="60" cy="180" r="11" fill="#1e293b"/>
  <circle cx="60" cy="180" r="6" fill="#374151"/>
  <circle cx="60" cy="180" r="3" fill="#d97706"/>
  <circle cx="132" cy="180" r="11" fill="#1e293b"/>
  <circle cx="132" cy="180" r="6" fill="#374151"/>
  <circle cx="132" cy="180" r="3" fill="#d97706"/>
  <rect x="138" y="150" width="9" height="9" rx="2" fill="#fef08a"/>
  <text x="66" y="36" font-family="Georgia,serif" font-size="30" font-weight="700" font-style="italic" fill="#4ade80">N</text>
  <text x="96" y="36" font-family="Georgia,serif" font-size="30" font-weight="700" font-style="italic" fill="#fbbf24">V</text>
</svg>